# xmcd
#
# Track frame offsets:
#	150
#	46245
#	87198
#	129708
#	151352
#	158030
#
# Disc length: 2440 seconds
#
# Revision: 1
# Processed by: cddbd v1.5.2PL0 Copyright (c) Steve Scherf et al.
# Submitted via: audiograbber 1.83.01
#
DISCID=41098606
DTITLE=Grateful Dead - 95-07-08A Soldier Field, Chicago IL
DYEAR=1900
DGENRE=
TTITLE0=Space
TTITLE1=The Other One
TTITLE2=Visions Of Johanna
TTITLE3=One More Saturday Night
TTITLE4=Crowd
TTITLE5=US Blues
EXTD=
EXTT0=
EXTT1=
EXTT2=
EXTT3=
EXTT4=
EXTT5=
PLAYORDER=
